<mxfile host="Electron" agent="Mozilla/5.0 (Windows NT 10.0; Win64; x64) AppleWebKit/537.36 (KHTML, like Gecko) draw.io/27.0.5 Chrome/134.0.6998.205 Electron/35.3.0 Safari/537.36" version="27.0.5">
  <diagram name="Page-1" id="9bxDPWh1cj3ndDd6HQzL">
    <mxGraphModel dx="1026" dy="622" grid="1" gridSize="10" guides="1" tooltips="1" connect="1" arrows="1" fold="1" page="1" pageScale="1" pageWidth="850" pageHeight="1100" math="0" shadow="0">
      <root>
        <mxCell id="0" />
        <mxCell id="1" parent="0" />
        <mxCell id="PezyfQinINYqGtGz0ys4-1" value="" style="startState" vertex="1" parent="1">
          <mxGeometry x="10" y="130" width="30" height="30" as="geometry" />
        </mxCell>
        <mxCell id="PezyfQinINYqGtGz0ys4-2" value="&lt;font style=&quot;font-size: 14px;&quot;&gt;Created&lt;/font&gt;" style="rounded=1;whiteSpace=wrap;html=1;" vertex="1" parent="1">
          <mxGeometry x="150" y="10" width="120" height="60" as="geometry" />
        </mxCell>
        <mxCell id="PezyfQinINYqGtGz0ys4-3" style="edgeStyle=orthogonalEdgeStyle;rounded=0;orthogonalLoop=1;jettySize=auto;html=1;exitX=1;exitY=0.5;exitDx=0;exitDy=0;entryX=0;entryY=0.5;entryDx=0;entryDy=0;" edge="1" parent="1" source="PezyfQinINYqGtGz0ys4-1" target="PezyfQinINYqGtGz0ys4-2">
          <mxGeometry relative="1" as="geometry">
            <Array as="points">
              <mxPoint x="70" y="145" />
              <mxPoint x="70" y="40" />
            </Array>
          </mxGeometry>
        </mxCell>
        <mxCell id="PezyfQinINYqGtGz0ys4-4" value="&lt;font style=&quot;font-size: 14px;&quot;&gt;Create&lt;/font&gt;&lt;div&gt;&lt;font style=&quot;font-size: 14px;&quot;&gt;ShareHoldings&lt;/font&gt;&lt;/div&gt;" style="edgeLabel;html=1;align=center;verticalAlign=middle;resizable=0;points=[];" vertex="1" connectable="0" parent="PezyfQinINYqGtGz0ys4-3">
          <mxGeometry x="-0.0933" y="1" relative="1" as="geometry">
            <mxPoint x="3" y="3" as="offset" />
          </mxGeometry>
        </mxCell>
        <mxCell id="PezyfQinINYqGtGz0ys4-5" value="&lt;font style=&quot;font-size: 14px;&quot;&gt;Purchased&lt;/font&gt;" style="rounded=1;whiteSpace=wrap;html=1;" vertex="1" parent="1">
          <mxGeometry x="430" y="10" width="120" height="60" as="geometry" />
        </mxCell>
        <mxCell id="PezyfQinINYqGtGz0ys4-6" style="edgeStyle=orthogonalEdgeStyle;rounded=0;orthogonalLoop=1;jettySize=auto;html=1;exitX=1;exitY=0.5;exitDx=0;exitDy=0;entryX=0;entryY=0.5;entryDx=0;entryDy=0;" edge="1" parent="1" source="PezyfQinINYqGtGz0ys4-2" target="PezyfQinINYqGtGz0ys4-5">
          <mxGeometry relative="1" as="geometry" />
        </mxCell>
        <mxCell id="PezyfQinINYqGtGz0ys4-7" value="&lt;font style=&quot;font-size: 14px;&quot;&gt;Purchase Shares&lt;/font&gt;" style="edgeLabel;html=1;align=center;verticalAlign=middle;resizable=0;points=[];" vertex="1" connectable="0" parent="PezyfQinINYqGtGz0ys4-6">
          <mxGeometry x="-0.1313" y="-1" relative="1" as="geometry">
            <mxPoint x="5" y="-1" as="offset" />
          </mxGeometry>
        </mxCell>
        <mxCell id="PezyfQinINYqGtGz0ys4-8" value="&lt;font style=&quot;font-size: 14px;&quot;&gt;Failed&lt;/font&gt;" style="rounded=1;whiteSpace=wrap;html=1;" vertex="1" parent="1">
          <mxGeometry x="150" y="200" width="120" height="60" as="geometry" />
        </mxCell>
        <mxCell id="PezyfQinINYqGtGz0ys4-9" style="edgeStyle=orthogonalEdgeStyle;rounded=0;orthogonalLoop=1;jettySize=auto;html=1;exitX=0.5;exitY=1;exitDx=0;exitDy=0;entryX=0.5;entryY=0;entryDx=0;entryDy=0;" edge="1" parent="1" source="PezyfQinINYqGtGz0ys4-2" target="PezyfQinINYqGtGz0ys4-8">
          <mxGeometry relative="1" as="geometry" />
        </mxCell>
        <mxCell id="PezyfQinINYqGtGz0ys4-10" value="&lt;font style=&quot;font-size: 14px;&quot;&gt;Insufficient Funds&lt;/font&gt;" style="edgeLabel;html=1;align=center;verticalAlign=middle;resizable=0;points=[];" vertex="1" connectable="0" parent="PezyfQinINYqGtGz0ys4-9">
          <mxGeometry x="0.0557" y="1" relative="1" as="geometry">
            <mxPoint as="offset" />
          </mxGeometry>
        </mxCell>
        <mxCell id="PezyfQinINYqGtGz0ys4-11" value="&lt;font style=&quot;font-size: 14px;&quot;&gt;Updated&lt;/font&gt;" style="rounded=1;whiteSpace=wrap;html=1;" vertex="1" parent="1">
          <mxGeometry x="590" y="190" width="120" height="60" as="geometry" />
        </mxCell>
        <mxCell id="PezyfQinINYqGtGz0ys4-12" style="edgeStyle=orthogonalEdgeStyle;rounded=0;orthogonalLoop=1;jettySize=auto;html=1;exitX=1;exitY=0.5;exitDx=0;exitDy=0;entryX=0.5;entryY=0;entryDx=0;entryDy=0;" edge="1" parent="1" source="PezyfQinINYqGtGz0ys4-5" target="PezyfQinINYqGtGz0ys4-11">
          <mxGeometry relative="1" as="geometry" />
        </mxCell>
        <mxCell id="PezyfQinINYqGtGz0ys4-13" value="&lt;font style=&quot;font-size: 14px;&quot;&gt;Update Quantity/Price&lt;/font&gt;" style="edgeLabel;html=1;align=center;verticalAlign=middle;resizable=0;points=[];" vertex="1" connectable="0" parent="PezyfQinINYqGtGz0ys4-12">
          <mxGeometry x="-0.1768" relative="1" as="geometry">
            <mxPoint x="26" y="60" as="offset" />
          </mxGeometry>
        </mxCell>
        <mxCell id="PezyfQinINYqGtGz0ys4-14" value="&lt;font style=&quot;font-size: 14px;&quot;&gt;Sold&lt;/font&gt;" style="rounded=1;whiteSpace=wrap;html=1;" vertex="1" parent="1">
          <mxGeometry x="430" y="300" width="120" height="60" as="geometry" />
        </mxCell>
        <mxCell id="PezyfQinINYqGtGz0ys4-15" style="edgeStyle=orthogonalEdgeStyle;rounded=0;orthogonalLoop=1;jettySize=auto;html=1;exitX=0.5;exitY=1;exitDx=0;exitDy=0;entryX=0.5;entryY=0;entryDx=0;entryDy=0;" edge="1" parent="1" source="PezyfQinINYqGtGz0ys4-5" target="PezyfQinINYqGtGz0ys4-14">
          <mxGeometry relative="1" as="geometry" />
        </mxCell>
        <mxCell id="PezyfQinINYqGtGz0ys4-16" value="&lt;font style=&quot;font-size: 14px;&quot;&gt;Sell Shares&lt;/font&gt;" style="edgeLabel;html=1;align=center;verticalAlign=middle;resizable=0;points=[];" vertex="1" connectable="0" parent="PezyfQinINYqGtGz0ys4-15">
          <mxGeometry x="0.0557" y="1" relative="1" as="geometry">
            <mxPoint as="offset" />
          </mxGeometry>
        </mxCell>
        <mxCell id="PezyfQinINYqGtGz0ys4-17" value="" style="endState" vertex="1" parent="1">
          <mxGeometry x="300" y="440" width="30" height="30" as="geometry" />
        </mxCell>
        <mxCell id="PezyfQinINYqGtGz0ys4-18" style="edgeStyle=orthogonalEdgeStyle;rounded=0;orthogonalLoop=1;jettySize=auto;html=1;exitX=0.5;exitY=1;exitDx=0;exitDy=0;entryX=0.5;entryY=0;entryDx=0;entryDy=0;" edge="1" parent="1" source="PezyfQinINYqGtGz0ys4-14" target="PezyfQinINYqGtGz0ys4-17">
          <mxGeometry relative="1" as="geometry" />
        </mxCell>
        <mxCell id="PezyfQinINYqGtGz0ys4-19" value="&lt;font style=&quot;font-size: 14px;&quot;&gt;Delete Record&lt;/font&gt;" style="edgeLabel;html=1;align=center;verticalAlign=middle;resizable=0;points=[];" vertex="1" connectable="0" parent="PezyfQinINYqGtGz0ys4-18">
          <mxGeometry x="-0.0118" y="4" relative="1" as="geometry">
            <mxPoint x="1" y="-6" as="offset" />
          </mxGeometry>
        </mxCell>
        <mxCell id="PezyfQinINYqGtGz0ys4-20" style="edgeStyle=orthogonalEdgeStyle;rounded=0;orthogonalLoop=1;jettySize=auto;html=1;exitX=1;exitY=0.5;exitDx=0;exitDy=0;entryX=1;entryY=0.5;entryDx=0;entryDy=0;" edge="1" parent="1" source="PezyfQinINYqGtGz0ys4-14" target="PezyfQinINYqGtGz0ys4-11">
          <mxGeometry relative="1" as="geometry" />
        </mxCell>
        <mxCell id="PezyfQinINYqGtGz0ys4-21" value="&lt;font style=&quot;font-size: 14px;&quot;&gt;Update from Sold&lt;/font&gt;" style="edgeLabel;html=1;align=center;verticalAlign=middle;resizable=0;points=[];" vertex="1" connectable="0" parent="PezyfQinINYqGtGz0ys4-20">
          <mxGeometry x="0.241" relative="1" as="geometry">
            <mxPoint y="-37" as="offset" />
          </mxGeometry>
        </mxCell>
        <mxCell id="PezyfQinINYqGtGz0ys4-22" style="edgeStyle=orthogonalEdgeStyle;rounded=0;orthogonalLoop=1;jettySize=auto;html=1;exitX=1;exitY=0.5;exitDx=0;exitDy=0;entryX=0;entryY=0.5;entryDx=0;entryDy=0;" edge="1" parent="1" source="PezyfQinINYqGtGz0ys4-8" target="PezyfQinINYqGtGz0ys4-17">
          <mxGeometry relative="1" as="geometry" />
        </mxCell>
        <mxCell id="PezyfQinINYqGtGz0ys4-25" value="&lt;span style=&quot;font-size: 14px;&quot;&gt;Delete on Failure&lt;/span&gt;" style="edgeLabel;html=1;align=center;verticalAlign=middle;resizable=0;points=[];" vertex="1" connectable="0" parent="PezyfQinINYqGtGz0ys4-22">
          <mxGeometry x="-0.3963" y="2" relative="1" as="geometry">
            <mxPoint y="55" as="offset" />
          </mxGeometry>
        </mxCell>
      </root>
    </mxGraphModel>
  </diagram>
</mxfile>
